<svg width="90" height="21" viewBox="0 0 90 21" fill="none" xmlns="http://www.w3.org/2000/svg">
<path d="M0.676758 12.5947L2.58887 12.2939C2.69629 13.0602 2.99349 13.6475 3.48047 14.0557C3.97461 14.4639 4.66211 14.668 5.54297 14.668C6.43099 14.668 7.08984 14.4889 7.51953 14.1309C7.94922 13.7656 8.16406 13.3395 8.16406 12.8525C8.16406 12.4157 7.97428 12.0719 7.59473 11.8213C7.32975 11.6494 6.6709 11.431 5.61816 11.166C4.2002 10.8079 3.21549 10.5 2.66406 10.2422C2.11979 9.97721 1.70443 9.61556 1.41797 9.15723C1.13867 8.69173 0.999023 8.17969 0.999023 7.62109C0.999023 7.11263 1.11361 6.64355 1.34277 6.21387C1.5791 5.77702 1.89779 5.41536 2.29883 5.12891C2.59961 4.9069 3.00781 4.7207 3.52344 4.57031C4.04622 4.41276 4.60482 4.33398 5.19922 4.33398C6.0944 4.33398 6.87858 4.46289 7.55176 4.7207C8.2321 4.97852 8.7334 5.32943 9.05566 5.77344C9.37793 6.21029 9.59993 6.79753 9.72168 7.53516L7.83105 7.79297C7.74512 7.20573 7.49447 6.7474 7.0791 6.41797C6.6709 6.08854 6.09082 5.92383 5.33887 5.92383C4.45085 5.92383 3.81706 6.07064 3.4375 6.36426C3.05794 6.65788 2.86816 7.00163 2.86816 7.39551C2.86816 7.64616 2.94694 7.87174 3.10449 8.07227C3.26204 8.27995 3.50911 8.45182 3.8457 8.58789C4.03906 8.65951 4.6084 8.82422 5.55371 9.08203C6.92155 9.44727 7.87402 9.74805 8.41113 9.98438C8.9554 10.2135 9.38151 10.5501 9.68945 10.9941C9.9974 11.4382 10.1514 11.9896 10.1514 12.6484C10.1514 13.293 9.96159 13.9017 9.58203 14.4746C9.20964 15.0404 8.66895 15.4808 7.95996 15.7959C7.25098 16.1038 6.44889 16.2578 5.55371 16.2578C4.07129 16.2578 2.93978 15.9499 2.15918 15.334C1.38574 14.7181 0.891602 13.805 0.676758 12.5947Z" fill="white"/>
<path d="M11.7305 10.2959C11.7305 8.18327 12.3177 6.61849 13.4922 5.60156C14.4733 4.75651 15.6693 4.33398 17.0801 4.33398C18.6484 4.33398 19.9303 4.84961 20.9258 5.88086C21.9212 6.90495 22.4189 8.32292 22.4189 10.1348C22.4189 11.6029 22.1969 12.7594 21.7529 13.6045C21.3161 14.4424 20.6751 15.0941 19.8301 15.5596C18.9922 16.0251 18.0755 16.2578 17.0801 16.2578C15.4831 16.2578 14.1904 15.7458 13.2021 14.7217C12.221 13.6976 11.7305 12.2223 11.7305 10.2959ZM13.7178 10.2959C13.7178 11.7568 14.0365 12.8525 14.6738 13.583C15.3112 14.3063 16.1133 14.668 17.0801 14.668C18.0397 14.668 18.8382 14.3027 19.4756 13.5723C20.113 12.8418 20.4316 11.7282 20.4316 10.2314C20.4316 8.82064 20.1094 7.75358 19.4648 7.03027C18.8275 6.2998 18.0326 5.93457 17.0801 5.93457C16.1133 5.93457 15.3112 6.29622 14.6738 7.01953C14.0365 7.74284 13.7178 8.83496 13.7178 10.2959Z" fill="white"/>
<path d="M32.1729 16V14.3242C31.2848 15.6133 30.0781 16.2578 28.5527 16.2578C27.8796 16.2578 27.2493 16.1289 26.6621 15.8711C26.082 15.6133 25.6488 15.291 25.3623 14.9043C25.083 14.5104 24.8861 14.0306 24.7715 13.4648C24.6927 13.0853 24.6533 12.4837 24.6533 11.6602V4.5918H26.5869V10.9189C26.5869 11.9287 26.6263 12.609 26.7051 12.96C26.8268 13.4684 27.0846 13.8695 27.4785 14.1631C27.8724 14.4495 28.3594 14.5928 28.9395 14.5928C29.5195 14.5928 30.0638 14.446 30.5723 14.1523C31.0807 13.8516 31.4388 13.4469 31.6465 12.9385C31.8613 12.4229 31.9688 11.6781 31.9688 10.7041V4.5918H33.9023V16H32.1729Z" fill="white"/>
<path d="M44.3438 16V14.5605C43.6204 15.6921 42.557 16.2578 41.1533 16.2578C40.2438 16.2578 39.4059 16.0072 38.6396 15.5059C37.8805 15.0046 37.2897 14.3063 36.8672 13.4111C36.4518 12.5088 36.2441 11.474 36.2441 10.3066C36.2441 9.16797 36.4339 8.13672 36.8135 7.21289C37.193 6.2819 37.7624 5.56934 38.5215 5.0752C39.2806 4.58105 40.1292 4.33398 41.0674 4.33398C41.7549 4.33398 42.3672 4.48079 42.9043 4.77441C43.4414 5.06087 43.8783 5.43685 44.2148 5.90234V0.251953H46.1377V16H44.3438ZM38.2314 10.3066C38.2314 11.7676 38.5394 12.8597 39.1553 13.583C39.7712 14.3063 40.498 14.668 41.3359 14.668C42.181 14.668 42.8971 14.3242 43.4844 13.6367C44.0788 12.9421 44.376 11.8857 44.376 10.4678C44.376 8.90658 44.0752 7.76074 43.4736 7.03027C42.8721 6.2998 42.1309 5.93457 41.25 5.93457C40.3906 5.93457 39.6709 6.28548 39.0908 6.9873C38.5179 7.68913 38.2314 8.79557 38.2314 10.3066Z" fill="white"/>
<path d="M56.998 12.3262L58.9961 12.5732C58.681 13.7406 58.0973 14.6465 57.2451 15.291C56.3929 15.9355 55.3044 16.2578 53.9795 16.2578C52.3109 16.2578 50.986 15.7458 50.0049 14.7217C49.0309 13.6904 48.5439 12.2474 48.5439 10.3926C48.5439 8.47331 49.0381 6.98372 50.0264 5.92383C51.0146 4.86393 52.2965 4.33398 53.8721 4.33398C55.3975 4.33398 56.6436 4.85319 57.6104 5.8916C58.5771 6.93001 59.0605 8.39095 59.0605 10.2744C59.0605 10.389 59.057 10.5609 59.0498 10.79H50.542C50.6136 12.0433 50.9681 13.0029 51.6055 13.6689C52.2428 14.335 53.0378 14.668 53.9902 14.668C54.6992 14.668 55.3044 14.4818 55.8057 14.1094C56.307 13.737 56.7044 13.1426 56.998 12.3262ZM50.6494 9.2002H57.0195C56.9336 8.24056 56.6901 7.52083 56.2891 7.04102C55.6732 6.29622 54.8747 5.92383 53.8936 5.92383C53.0055 5.92383 52.2572 6.22103 51.6484 6.81543C51.0469 7.40983 50.7139 8.20475 50.6494 9.2002Z" fill="white"/>
<path d="M61.4346 16V4.5918H63.1641V6.19238C63.5221 5.63379 63.9984 5.1862 64.5928 4.84961C65.1872 4.50586 65.8639 4.33398 66.623 4.33398C67.4681 4.33398 68.1592 4.50944 68.6963 4.86035C69.2406 5.21126 69.6237 5.70182 69.8457 6.33203C70.748 5 71.9225 4.33398 73.3691 4.33398C74.5007 4.33398 75.3708 4.64909 75.9795 5.2793C76.5882 5.90234 76.8926 6.86556 76.8926 8.16895V16H74.9697V8.81348C74.9697 8.04004 74.9053 7.48503 74.7764 7.14844C74.6546 6.80469 74.429 6.52897 74.0996 6.32129C73.7702 6.11361 73.3835 6.00977 72.9395 6.00977C72.1374 6.00977 71.4714 6.27832 70.9414 6.81543C70.4115 7.34538 70.1465 8.19759 70.1465 9.37207V16H68.2129V8.58789C68.2129 7.72852 68.0553 7.08398 67.7402 6.6543C67.4251 6.22461 66.9095 6.00977 66.1934 6.00977C65.6491 6.00977 65.1442 6.15299 64.6787 6.43945C64.2204 6.72591 63.8874 7.14486 63.6797 7.69629C63.472 8.24772 63.3682 9.04264 63.3682 10.0811V16H61.4346Z" fill="white"/>
<path d="M79.6748 20.3936L79.46 18.5781C79.8825 18.6927 80.2513 18.75 80.5664 18.75C80.9961 18.75 81.3398 18.6784 81.5977 18.5352C81.8555 18.3919 82.0667 18.1914 82.2314 17.9336C82.3532 17.7402 82.5501 17.2604 82.8223 16.4941C82.8581 16.3867 82.9154 16.2292 82.9941 16.0215L78.665 4.5918H80.749L83.123 11.1982C83.431 12.0361 83.7067 12.917 83.9502 13.8408C84.1722 12.9528 84.4372 12.0863 84.7451 11.2412L87.1836 4.5918H89.1172L84.7773 16.1934C84.3118 17.4466 83.9502 18.3096 83.6924 18.7822C83.3486 19.4196 82.9548 19.8851 82.5107 20.1787C82.0667 20.4795 81.5368 20.6299 80.9209 20.6299C80.5485 20.6299 80.1331 20.5511 79.6748 20.3936Z" fill="white"/>
</svg>
