<svg width="18" height="11" viewBox="0 0 18 11" fill="none" xmlns="http://www.w3.org/2000/svg">
<path d="M9.9581 0.881836L12.8381 0.881836V3.79784L9.9581 3.79784V0.881836ZM4.0001 0.881836L6.8801 0.881836V3.79784L4.0001 3.79784V0.881836Z" fill="#040404"/>
<path d="M0.454102 9.10362C1.7621 8.14362 3.1061 7.45962 4.4861 7.05162C5.8781 6.65562 7.2941 6.45762 8.7341 6.45762C10.1861 6.45762 11.5961 6.65562 12.9641 7.05162C14.3441 7.45962 15.6941 8.14362 17.0141 9.10362L16.2761 10.9216C15.3401 10.5496 14.4641 10.2496 13.6481 10.0216C12.8321 9.79362 12.0281 9.62562 11.2361 9.51762C10.4441 9.42162 9.6101 9.37362 8.7341 9.37362C7.8701 9.37362 7.0361 9.42162 6.2321 9.51762C5.4401 9.62562 4.6361 9.79362 3.8201 10.0216C3.0041 10.2496 2.1281 10.5496 1.1921 10.9216L0.454102 9.10362Z" fill="#040404"/>
</svg>
