<svg width="17" height="17" viewBox="0 0 17 17" fill="none" xmlns="http://www.w3.org/2000/svg">
<path fill-rule="evenodd" clip-rule="evenodd" d="M14.175 2.73262C12.675 1.23262 10.675 0.432617 8.57495 0.432617C4.17495 0.432617 0.574951 4.03262 0.574951 8.43262C0.574951 9.83262 0.974957 11.2326 1.67496 12.4326L0.574951 16.4326L4.77496 15.3326C5.97496 15.9326 7.27495 16.3326 8.57495 16.3326C12.975 16.3326 16.575 12.7326 16.575 8.33262C16.575 6.23262 15.675 4.23262 14.175 2.73262ZM8.57495 15.0326C7.37495 15.0326 6.17496 14.7326 5.17496 14.1326L4.97495 14.0326L2.47495 14.7326L3.17496 12.3326L2.97495 12.0326C2.27495 10.9326 1.97495 9.73262 1.97495 8.53262C1.97495 4.93262 4.97495 1.93262 8.57495 1.93262C10.375 1.93262 11.975 2.63262 13.275 3.83262C14.575 5.13262 15.175 6.73262 15.175 8.53262C15.175 12.0326 12.275 15.0326 8.57495 15.0326ZM12.175 10.0326C11.975 9.93262 10.975 9.43262 10.775 9.43262C10.575 9.33262 10.4749 9.33262 10.3749 9.53262C10.2749 9.73262 9.87496 10.1326 9.77496 10.3326C9.67496 10.4326 9.57494 10.4326 9.37494 10.4326C9.17494 10.3326 8.57496 10.1326 7.77496 9.43262C7.17496 8.93262 6.77496 8.23262 6.67496 8.03262C6.57496 7.83262 6.67496 7.73262 6.77496 7.63262C6.87496 7.53262 6.97495 7.43262 7.07495 7.33262C7.17495 7.23262 7.17496 7.13262 7.27496 7.03262C7.37496 6.93262 7.27496 6.83262 7.27496 6.73262C7.27496 6.63262 6.87496 5.63262 6.67496 5.23262C6.57496 4.93262 6.37496 4.93262 6.27496 4.93262C6.17496 4.93262 6.07494 4.93262 5.87494 4.93262C5.77494 4.93262 5.57494 4.93262 5.37494 5.13262C5.17494 5.33262 4.67496 5.83262 4.67496 6.83262C4.67496 7.83262 5.37495 8.73262 5.47495 8.93262C5.57495 9.03262 6.87494 11.1326 8.87494 11.9326C10.5749 12.6326 10.875 12.4326 11.275 12.4326C11.675 12.4326 12.475 11.9326 12.575 11.5326C12.775 11.0326 12.775 10.6326 12.675 10.6326C12.575 10.1326 12.375 10.1326 12.175 10.0326Z" fill="white"/>
</svg>
