<svg width="502" height="503" viewBox="0 0 502 503" fill="none" xmlns="http://www.w3.org/2000/svg">
<g clip-path="url(#clip0_172_1210)">
<path d="M413.547 280.739C408.143 280.739 403.755 285.126 403.755 290.531C403.755 295.935 408.143 300.323 413.547 300.323C418.952 300.323 423.339 295.935 423.339 290.531C423.339 285.126 418.952 280.739 413.547 280.739Z" fill="#17696A"/>
<path d="M460.518 242.198L443.635 174.664C449.636 168.923 452.715 161.307 452.715 153.443C452.715 137.244 439.538 124.067 423.339 124.067H345.003V94.691C345.003 78.4921 331.826 65.3149 315.627 65.3149H29.7007C13.5018 65.3149 0.324707 78.4921 0.324707 94.691V349.283C0.324707 365.482 13.5018 378.659 29.7007 378.659H64.9519C64.9519 411.057 91.3062 437.411 123.704 437.411C156.102 437.411 182.456 411.057 182.456 378.659H364.587C364.587 411.057 390.942 437.411 423.339 437.411C455.737 437.411 482.091 411.057 482.091 378.659C482.091 378.101 482.065 377.546 482.049 376.988C493.467 372.96 501.675 362.062 501.675 349.283V290.531C501.675 266.189 483.82 245.947 460.518 242.198ZM425.485 182.819L440.173 241.571H358.85L381.302 219.118C385.127 215.293 385.127 209.097 381.302 205.272C377.477 201.447 371.281 201.447 367.456 205.272L345.003 227.721V182.819H425.485ZM433.131 153.443C433.131 158.848 428.744 163.235 423.339 163.235H345.003V143.651H423.339C428.74 143.651 433.131 148.042 433.131 153.443ZM123.704 417.827C102.108 417.827 84.5359 400.255 84.5359 378.659C84.5359 356.769 102.425 339.491 123.704 339.491C145.032 339.491 162.872 356.814 162.872 378.659C162.872 400.255 145.3 417.827 123.704 417.827ZM179.094 359.075C170.916 335.968 148.781 319.907 123.704 319.907C98.6158 319.907 76.4728 335.98 68.3103 359.075H29.7007C24.2998 359.075 19.9087 354.684 19.9087 349.283V94.691C19.9087 89.2901 24.2998 84.8989 29.7007 84.8989H315.627C321.028 84.8989 325.419 89.2901 325.419 94.691V359.075H179.094ZM423.339 417.827C401.743 417.827 384.171 400.255 384.171 378.659C384.171 356.769 402.061 339.491 423.339 339.491C444.667 339.491 462.507 356.814 462.507 378.659C462.507 400.255 444.935 417.827 423.339 417.827ZM478.033 357.205C469.346 335.104 447.735 319.907 423.339 319.907C398.251 319.907 376.108 335.98 367.946 359.075H345.003V261.155H452.715C465.479 261.155 476.365 269.341 480.408 280.739H452.715C447.307 280.739 442.923 285.122 442.923 290.531C442.923 295.94 447.307 300.323 452.715 300.323H482.091V349.283C482.091 352.538 480.485 355.422 478.033 357.205V357.205Z" fill="#17696A"/>
</g>
<defs>
<clipPath id="clip0_172_1210">
<rect width="501.351" height="501.351" fill="white" transform="translate(0.324707 0.6875)"/>
</clipPath>
</defs>
</svg>
