<svg width="14" height="13" viewBox="0 0 14 13" fill="none" xmlns="http://www.w3.org/2000/svg">
<path d="M0.933204 5.59859C4.57718 3.90512 7.00707 2.78869 8.22287 2.24928C11.6942 0.709165 12.4155 0.441631 12.8857 0.432703C12.9891 0.430854 13.2203 0.458189 13.3701 0.587814C13.4965 0.697266 13.5313 0.845121 13.548 0.948894C13.5646 1.05267 13.5854 1.28907 13.5689 1.47378C13.3808 3.58208 12.5668 8.69837 12.1527 11.0597C11.9775 12.0589 11.6325 12.3939 11.2984 12.4267C10.5725 12.4979 10.0213 11.915 9.31827 11.4234C8.21811 10.6541 7.5966 10.1753 6.52871 9.42464C5.29457 8.55715 6.09461 8.08036 6.79794 7.30115C6.982 7.09723 10.1803 3.99418 10.2422 3.71269C10.2499 3.67748 10.2571 3.54625 10.184 3.47696C10.111 3.40766 10.0031 3.43136 9.92524 3.45021C9.8149 3.47692 8.05739 4.71601 4.65271 7.16749C4.15384 7.53288 3.70199 7.71092 3.29714 7.70159C2.85083 7.6913 1.9923 7.43241 1.35408 7.21112C0.571273 6.9397 -0.0508875 6.79619 0.00328865 6.33523C0.0315069 6.09513 0.341479 5.84958 0.933204 5.59859Z" fill="white"/>
</svg>
